<?xml version="1.0" encoding="utf-8"?>
<!-- Generator: Adobe Illustrator 20.0.0, SVG Export Plug-In . SVG Version: 6.00 Build 0)  -->
<svg version="1.1" id="Capa_1" xmlns="http://www.w3.org/2000/svg" xmlns:xlink="http://www.w3.org/1999/xlink" x="0px" y="0px"
	 viewBox="0 0 99 99" style="enable-background:new 0 0 99 99;" xml:space="preserve">
<style type="text/css">
	.st0{fill:#666666;}
	.st1{fill:#CCCCCC;}
	.st2{fill:#FFFFFF;}
	.st3{fill:#48A0DC;}
	.st4{fill:#88C057;}
	.st5{fill:#ED7161;}
</style>
<g id="">
	<g>
		<path class="st0" d="M95.9,6.2H52.6V3.1c0-1.7-1.4-3.1-3.1-3.1c-1.7,0-3.1,1.4-3.1,3.1v3.1H3.1C1.4,6.2,0,7.6,0,9.3v6.2
			c0,1.7,1.4,3.1,3.1,3.1h43.3v55.7c-0.7,0-1.4,0.3-2,0.9L25.6,93.9c-1.2,1.2-1.2,3,0,4.2c1.2,1.2,3,1.2,4.2,0l16.6-16.6v11.3
			c0,1.7,1.4,3.1,3.1,3.1c1.7,0,3.1-1.4,3.1-3.1V81.6l16.6,16.6c1.2,1.2,3,1.2,4.2,0c1.2-1.2,1.2-3,0-4.2L54.6,75.1
			c-0.6-0.6-1.3-0.8-2-0.9V18.6h43.3c1.7,0,3.1-1.4,3.1-3.1V9.3C99,7.6,97.6,6.2,95.9,6.2z"/>
	</g>
</g>
<g id="">
	<g>
		<path class="st1" d="M3.1,18.6v55.7c0,3.4,2.8,6.2,6.2,6.2h80.4c3.4,0,6.2-2.8,6.2-6.2V18.6H3.1z"/>
	</g>
</g>
<g id="">
	<g>
		<path class="st2" d="M9.3,18.6v52.6c0,1.7,1.4,3.1,3.1,3.1h74.3c1.7,0,3.1-1.4,3.1-3.1V18.6H9.3z"/>
	</g>
</g>
<g id="">
	<g>
		<path class="st3" d="M71.2,37.1H65c-1.7,0-3.1,1.4-3.1,3.1v21.7c0,1.7,1.4,3.1,3.1,3.1h6.2c1.7,0,3.1-1.4,3.1-3.1V40.2
			C74.3,38.5,72.9,37.1,71.2,37.1z"/>
	</g>
</g>
<g id="">
	<g>
		<path class="st4" d="M52.6,27.8h-6.2c-1.7,0-3.1,1.4-3.1,3.1v30.9c0,1.7,1.4,3.1,3.1,3.1h6.2c1.7,0,3.1-1.4,3.1-3.1V30.9
			C55.7,29.2,54.3,27.8,52.6,27.8z"/>
	</g>
</g>
<g id="">
	<g>
		<path class="st5" d="M34,46.4h-6.2c-1.7,0-3.1,1.4-3.1,3.1v12.4c0,1.7,1.4,3.1,3.1,3.1H34c1.7,0,3.1-1.4,3.1-3.1V49.5
			C37.1,47.8,35.7,46.4,34,46.4z"/>
	</g>
</g>
</svg>
