<?xml version="1.0" encoding="utf-8"?>
<!-- Generator: Adobe Illustrator 20.0.0, SVG Export Plug-In . SVG Version: 6.00 Build 0)  -->
<svg version="1.1" id="Capa_1" xmlns="http://www.w3.org/2000/svg" xmlns:xlink="http://www.w3.org/1999/xlink" x="0px" y="0px"
	 viewBox="0 0 99 99" style="enable-background:new 0 0 99 99;" xml:space="preserve">
<style type="text/css">
	.st0{fill:#666666;}
	.st1{fill:#CCCCCC;}
	.st2{fill:#FFFFFF;}
	.st3{fill:#48A0DC;}
	.st4{fill:#88C057;}
	.st5{fill:#ED7161;}
</style>
<g id="">
	<g>
		<path class="st0" d="M94.9,5.2H51.6V2.1c0-1.7-1.4-3.1-3.1-3.1c-1.7,0-3.1,1.4-3.1,3.1v3.1H2.1C0.4,5.2-1,6.6-1,8.3v6.2
			c0,1.7,1.4,3.1,3.1,3.1h43.3v55.7c-0.7,0-1.4,0.3-2,0.9L24.6,92.9c-1.2,1.2-1.2,3,0,4.2c1.2,1.2,3,1.2,4.2,0l16.6-16.6v11.3
			c0,1.7,1.4,3.1,3.1,3.1c1.7,0,3.1-1.4,3.1-3.1V80.6l16.6,16.6c1.2,1.2,3,1.2,4.2,0c1.2-1.2,1.2-3,0-4.2L53.6,74.1
			c-0.6-0.6-1.3-0.8-2-0.9V17.6h43.3c1.7,0,3.1-1.4,3.1-3.1V8.3C98,6.6,96.6,5.2,94.9,5.2z"/>
	</g>
</g>
<g id="Base_8_">
	<g>
		<path class="st1" d="M2.1,17.6v55.7c0,3.4,2.8,6.2,6.2,6.2h80.4c3.4,0,6.2-2.8,6.2-6.2V17.6H2.1z"/>
	</g>
</g>
<g id="">
	<g>
		<path class="st2" d="M8.3,17.6v52.6c0,1.7,1.4,3.1,3.1,3.1h74.3c1.7,0,3.1-1.4,3.1-3.1V17.6H8.3z"/>
	</g>
</g>
<g id="">
	<g>
		<path class="st3" d="M70.2,36.1H64c-1.7,0-3.1,1.4-3.1,3.1v21.7c0,1.7,1.4,3.1,3.1,3.1h6.2c1.7,0,3.1-1.4,3.1-3.1V39.2
			C73.3,37.5,71.9,36.1,70.2,36.1z"/>
	</g>
</g>
<g id="">
	<g>
		<path class="st4" d="M51.6,26.8h-6.2c-1.7,0-3.1,1.4-3.1,3.1v30.9c0,1.7,1.4,3.1,3.1,3.1h6.2c1.7,0,3.1-1.4,3.1-3.1V29.9
			C54.7,28.2,53.3,26.8,51.6,26.8z"/>
	</g>
</g>
<g id="">
	<g>
		<path class="st5" d="M33,45.4h-6.2c-1.7,0-3.1,1.4-3.1,3.1v12.4c0,1.7,1.4,3.1,3.1,3.1H33c1.7,0,3.1-1.4,3.1-3.1V48.5
			C36.1,46.8,34.7,45.4,33,45.4z"/>
	</g>
</g>
</svg>
